# Blender 4.2.3 LTS
# www.blender.org
mtllib testground.mtl
o Plane
v -16.000000 -16.000000 0.000000
v 16.000000 -16.000000 0.000000
v -16.000000 16.000000 0.000000
v 16.000000 16.000000 0.000000
v -16.000000 37.000000 10.000000
v 16.000000 37.000000 10.000000
v -16.000000 44.000000 43.000000
v 16.000000 44.000000 43.000000
vn -0.0000 -0.0000 1.0000
vn -0.0000 -0.4299 0.9029
vn -0.0000 -0.9782 0.2075
vt 1.000000 0.000000
vt 0.000000 1.000000
vt 0.000000 0.000000
vt 1.000000 1.000000
s 0
usemtl Material.001
f 2/1/1 3/2/1 1/3/1
f 4/4/2 5/2/2 3/2/2
f 6/4/3 7/2/3 5/2/3
f 2/1/1 4/4/1 3/2/1
f 4/4/2 6/4/2 5/2/2
f 6/4/3 8/4/3 7/2/3
