# Blender 4.2.3 LTS
# www.blender.org
mtllib enemy1.mtl
o Cube
v -1.537458 -1.537458 -2.000000
v -1.537458 -2.000000 -1.537458
v -2.000000 -1.537458 -1.537458
v -1.537458 -2.000000 1.537458
v -1.537458 -1.537458 2.000000
v -2.000000 -1.537458 1.537458
v -1.537458 1.537458 -2.000000
v -2.000000 1.537458 -1.537458
v -1.537458 2.000000 -1.537458
v -1.537458 1.537458 2.000000
v -1.537458 2.000000 1.537458
v -2.000000 1.537458 1.537458
v 1.537458 -1.537458 -2.000000
v 2.000000 -1.537458 -1.537458
v 1.537458 -2.000000 -1.537458
v 1.537458 -1.537458 2.000000
v 1.537458 -2.000000 1.537458
v 2.000000 -1.537458 1.537458
v 1.537458 1.537458 -2.000000
v 1.537458 2.000000 -1.537458
v 2.000000 1.537458 -1.537458
v 1.537458 1.537458 2.000000
v 2.000000 1.537458 1.537458
v 1.537458 2.000000 1.537458
vn -0.3416 -0.3416 -0.8756
vn -0.3416 -0.8756 -0.3416
vn -0.8756 -0.3416 -0.3416
vn -0.3416 -0.8756 0.3416
vn -0.3416 -0.3416 0.8756
vn -0.8756 -0.3416 0.3416
vn -0.3416 0.3416 -0.8756
vn -0.8756 0.3416 -0.3416
vn -0.3416 0.8756 -0.3416
vn -0.3416 0.3416 0.8756
vn -0.3416 0.8756 0.3416
vn -0.8756 0.3416 0.3416
vn 0.3416 -0.3416 -0.8756
vn 0.8756 -0.3416 -0.3416
vn 0.3416 -0.8756 -0.3416
vn 0.3416 -0.3416 0.8756
vn 0.3416 -0.8756 0.3416
vn 0.8756 -0.3416 0.3416
vn 0.3416 0.3416 -0.8756
vn 0.3416 0.8756 -0.3416
vn 0.8756 0.3416 -0.3416
vn 0.3416 0.3416 0.8756
vn 0.8756 0.3416 0.3416
vn 0.3416 0.8756 0.3416
vt 0.562190 0.726260
vt 0.477501 0.999912
vt 0.383019 0.820742
vt 0.439283 0.493186
vt 0.354595 0.766839
vt 0.260113 0.587668
vt 0.672357 0.370280
vt 0.587668 0.643932
vt 0.493187 0.464762
vt 0.193470 0.027039
vt 0.108782 0.300691
vt 0.014300 0.121521
vt 0.316377 0.260113
vt 0.231688 0.533765
vt 0.137206 0.354595
vt 0.121521 0.889745
vt 0.135733 0.916697
vt 0.094569 0.903958
vt 0.179258 0.000088
vt 0.220422 0.012827
vt 0.027039 0.710575
vt 0.000088 0.724787
vt 0.012827 0.683623
vt 0.314904 0.191997
vt 0.302164 0.233161
vt 0.287952 0.206210
vt 0.300691 0.795263
vt 0.327643 0.781051
vt 0.314904 0.822215
vt 0.589141 0.712048
vt 0.547977 0.699309
vt 0.206210 0.616093
vt 0.191997 0.589141
vt 0.233161 0.601881
vt 0.437810 0.425071
vt 0.425071 0.466235
vt 0.410859 0.439283
vt 0.000088 0.094569
vt 0.343328 0.245900
vt 0.533765 0.672357
vt 0.683623 0.891218
vt 0.656672 0.905431
vt 0.766839 0.549450
s 1
usemtl Material.001
f 17/1/17 2/2/2 15/3/15
f 23/4/23 14/5/14 21/6/21
f 10/7/10 16/8/16 22/9/22
f 6/10/6 8/11/8 3/12/3
f 11/13/11 20/14/20 9/15/9
f 1/16/1 2/17/2 3/18/3
f 4/19/4 5/20/5 6/10/6
f 7/21/7 8/22/8 9/23/9
f 10/24/10 11/25/11 12/26/12
f 13/27/13 14/28/14 15/29/15
f 16/30/16 17/1/17 18/31/18
f 19/32/19 20/33/20 21/34/21
f 22/35/22 23/36/23 24/37/24
f 1/16/1 8/22/8 7/21/7
f 4/19/4 3/12/3 2/38/2
f 10/24/10 6/10/6 5/20/5
f 9/15/9 12/26/12 11/13/11
f 7/21/7 20/33/20 19/32/19
f 22/35/22 11/13/11 10/39/10
f 21/6/21 24/37/24 23/4/23
f 19/32/19 14/5/14 13/27/13
f 16/8/16 23/4/23 22/9/22
f 15/3/15 18/40/18 17/1/17
f 13/27/13 2/17/2 1/16/1
f 5/41/5 17/1/17 16/30/16
f 19/32/19 1/16/1 7/21/7
f 17/1/17 4/42/4 2/2/2
f 23/4/23 18/40/18 14/5/14
f 10/7/10 5/43/5 16/8/16
f 6/10/6 12/26/12 8/11/8
f 11/13/11 24/37/24 20/14/20
f 1/16/1 3/18/3 8/22/8
f 4/19/4 6/10/6 3/12/3
f 10/24/10 12/26/12 6/10/6
f 9/15/9 8/11/8 12/26/12
f 7/21/7 9/23/9 20/33/20
f 22/35/22 24/37/24 11/13/11
f 21/6/21 20/14/20 24/37/24
f 19/32/19 21/6/21 14/5/14
f 16/8/16 18/40/18 23/4/23
f 15/3/15 14/5/14 18/40/18
f 13/27/13 15/29/15 2/17/2
f 5/41/5 4/42/4 17/1/17
f 19/32/19 13/27/13 1/16/1
